<svg width="50" height="50" viewBox="0 0 50 50" fill="none" xmlns="http://www.w3.org/2000/svg">
<path d="M25 4.06244C13.5 4.06244 4.16663 13.3958 4.16663 24.8958C4.16663 36.3958 13.5 45.7291 25 45.7291H35.4166V41.5624H25C15.9583 41.5624 8.33329 33.9374 8.33329 24.8958C8.33329 15.8541 15.9583 8.22911 25 8.22911C34.0416 8.22911 41.6666 15.8541 41.6666 24.8958V27.8749C41.6666 29.5208 40.1875 31.1458 38.5416 31.1458C36.8958 31.1458 35.4166 29.5208 35.4166 27.8749V24.8958C35.4166 19.1458 30.75 14.4791 25 14.4791C19.25 14.4791 14.5833 19.1458 14.5833 24.8958C14.5833 30.6458 19.25 35.3124 25 35.3124C27.875 35.3124 30.5 34.1458 32.375 32.2499C33.7291 34.1041 36.0625 35.3124 38.5416 35.3124C42.6458 35.3124 45.8333 31.9791 45.8333 27.8749V24.8958C45.8333 13.3958 36.5 4.06244 25 4.06244ZM25 31.1458C21.5416 31.1458 18.75 28.3541 18.75 24.8958C18.75 21.4374 21.5416 18.6458 25 18.6458C28.4583 18.6458 31.25 21.4374 31.25 24.8958C31.25 28.3541 28.4583 31.1458 25 31.1458Z" fill="#807676"/>
</svg>
