<svg width="60" height="60" viewBox="0 0 60 60" fill="none" xmlns="http://www.w3.org/2000/svg">
<path d="M21.2 32.8501H23.025V41.8751H24.775V32.8501H26.6V31.3251H21.2V32.8501Z" fill="#C72424"/>
<path d="M30.425 39.9998C30.125 40.3498 29.1 41.0498 29.1 40.0498V34.0748H27.55V40.5998C27.55 42.5748 29.525 42.0498 30.45 41.0248V41.8748H32V34.0748H30.45V39.9998H30.425Z" fill="#C72424"/>
<path d="M36.1999 34.025C35.2999 34.025 34.7249 34.7 34.7249 34.7V31.3H33.1499V41.875H34.7249V41.2751C34.7249 41.2751 35.2499 41.9751 36.1999 41.9751C37.0249 41.9751 37.6499 41.2501 37.6499 40.2501V35.925C37.6499 34.75 37.0999 34.025 36.1999 34.025ZM36.0249 40.0501C36.0249 40.6251 35.6249 40.9001 35.0999 40.6751C34.9581 40.6088 34.8307 40.5153 34.7249 40.4V35.55C34.8249 35.45 34.9499 35.375 35.0499 35.3C35.5999 35.025 36.0249 35.45 36.0249 36.025V40.0501Z" fill="#C72424"/>
<path d="M41.8 39.6498C41.8 40.2498 41.475 40.6498 41.1 40.6748C40.7 40.6998 40.3 40.3748 40.3 39.6498V38.1748H43.275V36.1748C43.2826 35.8703 43.229 35.5673 43.1173 35.2839C43.0057 35.0005 42.8382 34.7423 42.625 34.5248C42.1949 34.1325 41.632 33.9181 41.05 33.9248C40.5 33.9248 39.925 34.0998 39.475 34.4498C39 34.8248 38.7 35.3998 38.7 36.1748V39.6748C38.7 40.3748 38.925 40.9248 39.275 41.3248C39.7 41.7748 40.275 42.0248 40.875 42.0498C41.6 42.0748 42.375 41.7748 42.825 41.1498C43.1 40.7748 43.275 40.2748 43.275 39.6748V39.2748H41.8V39.6498ZM40.3 36.1748C40.3 35.7498 40.55 35.2498 41.025 35.2498C41.5 35.2498 41.8 35.6998 41.8 36.1748V36.9748H40.3V36.1748Z" fill="#C72424"/>
<path d="M32.4251 7.5C29.4701 7.50016 26.5442 8.08234 23.8143 9.21328C21.0844 10.3442 18.6039 12.0018 16.5146 14.0913C14.4253 16.1809 12.768 18.6615 11.6374 21.3915C10.5067 24.1216 9.92488 27.0476 9.92505 30.0025C9.92521 32.9574 10.5074 35.8833 11.6383 38.6133C12.7693 41.3432 14.4268 43.8236 16.5164 45.9129C18.6059 48.0022 21.0866 49.6595 23.8166 50.7902C26.5466 51.9208 29.4726 52.5027 32.4275 52.5025C38.3953 52.5022 44.1184 50.1312 48.338 45.9112C52.5575 41.6911 54.9279 35.9677 54.9276 30C54.9272 24.0323 52.5562 18.3091 48.3362 14.0896C44.1162 9.87001 38.3928 7.49967 32.4251 7.5ZM36.3751 15.925H38.3751V22.625C38.3751 23.05 38.5751 23.05 38.6501 23.05C38.9501 23.05 39.4001 22.725 39.6251 22.5V15.9H41.625V24.75H39.6251V23.975C39.3501 24.225 39.0751 24.425 38.8001 24.575C38.4251 24.775 38.0751 24.85 37.7251 24.85C37.5334 24.8592 37.3421 24.8258 37.1649 24.7524C36.9877 24.6789 36.829 24.5671 36.7001 24.425C36.4751 24.15 36.3751 23.725 36.3751 23.2V15.925ZM30 18.25C30 16.875 31.125 15.75 32.5 15.75C33.8751 15.75 35 16.875 35 18.25V22.5C35 23.875 33.8751 25 32.5 25C31.125 25 30 23.875 30 22.5V18.25ZM24.8 12.875L26 17.275L27.225 12.875H29.5L27.15 19.825V24.75H24.925V19.825L22.5251 12.875H24.8ZM44.55 44.225C43.2751 45.475 32.475 45.5 32.475 45.5C32.475 45.5 21.7 45.475 20.4 44.225C19.125 42.975 19.125 36.75 19.125 36.7C19.125 36.675 19.125 30.45 20.4 29.175C21.675 27.925 32.475 27.9 32.475 27.9C32.475 27.9 43.25 27.925 44.55 29.175C45.8251 30.425 45.8501 36.65 45.8501 36.7C45.8501 36.7 45.85 42.95 44.55 44.225Z" fill="#C72424"/>
<path d="M32.4501 23.3749C32.8751 23.3749 33.0751 23.1249 33.1001 22.7249V17.9749C33.1001 17.6499 32.7751 17.3749 32.4751 17.3749C32.1751 17.3749 31.8501 17.6249 31.8501 17.9749V22.7249C31.8501 23.0999 32.0251 23.3499 32.4501 23.3749Z" fill="#C72424"/>
</svg>
